HIERARCHY
ROOT Hips
{
	OFFSET -0.001795 -0.223333 0.028219
	CHANNELS 6 Xposition Yposition Zposition Zrotation Yrotation Xrotation
	JOINT LeftUpLeg
	{
		OFFSET 0.069520 -0.091406 -0.006815
		CHANNELS 3 Zrotation Yrotation Xrotation
		JOINT LeftLeg
		{
			OFFSET 0.034277 -0.375199 -0.004496
			CHANNELS 3 Zrotation Yrotation Xrotation
			JOINT LeftFoot
			{
				OFFSET -0.013596 -0.397961 -0.043693
				CHANNELS 3 Zrotation Yrotation Xrotation
				JOINT LeftToe
				{
					OFFSET 0.026358 -0.055791 0.119288
					CHANNELS 3 Zrotation Yrotation Xrotation
					End Site
					{
						OFFSET 0.000000 0.000000 0.000000
					}
				}
			}
		}
	}
	JOINT RightUpLeg
	{
		OFFSET -0.067670 -0.090522 -0.004320
		CHANNELS 3 Zrotation Yrotation Xrotation
		JOINT RightLeg
		{
			OFFSET -0.038290 -0.382569 -0.008850
			CHANNELS 3 Zrotation Yrotation Xrotation
			JOINT RightFoot
			{
				OFFSET 0.015774 -0.398415 -0.042312
				CHANNELS 3 Zrotation Yrotation Xrotation
				JOINT RightToe
				{
					OFFSET -0.025372 -0.048144 0.123348
					CHANNELS 3 Zrotation Yrotation Xrotation
					End Site
					{
						OFFSET 0.000000 0.000000 0.000000
					}
				}
			}
		}
	}
	JOINT Spine
	{
		OFFSET -0.002533 0.108963 -0.026696
		CHANNELS 3 Zrotation Yrotation Xrotation
		JOINT Spine1
		{
			OFFSET 0.005487 0.135180 0.001092
			CHANNELS 3 Zrotation Yrotation Xrotation
			JOINT Spine2
			{
				OFFSET 0.001457 0.052922 0.025425
				CHANNELS 3 Zrotation Yrotation Xrotation
				JOINT Neck
				{
					OFFSET -0.002778 0.213870 -0.042857
					CHANNELS 3 Zrotation Yrotation Xrotation
					JOINT Head
					{
						OFFSET 0.005152 0.064970 0.051349
						CHANNELS 3 Zrotation Yrotation Xrotation
						End Site
						{
							OFFSET 0.000000 0.000000 0.000000
						}
					}
				}
				JOINT LeftShoulder
				{
					OFFSET 0.078845 0.121749 -0.034090
					CHANNELS 3 Zrotation Yrotation Xrotation
					JOINT LeftArm
					{
						OFFSET 0.090977 0.030469 -0.008868
						CHANNELS 3 Zrotation Yrotation Xrotation
						JOINT LeftForeArm
						{
							OFFSET 0.259612 -0.012772 -0.027456
							CHANNELS 3 Zrotation Yrotation Xrotation
							JOINT LeftHand
							{
								OFFSET 0.249234 0.008986 -0.001171
								CHANNELS 3 Zrotation Yrotation Xrotation
								End Site
								{
									OFFSET 0.000000 0.000000 0.000000
								}
							}
						}
					}
				}
				JOINT RightShoulder
				{
					OFFSET -0.081759 0.118833 -0.038615
					CHANNELS 3 Zrotation Yrotation Xrotation
					JOINT RightArm
					{
						OFFSET -0.096012 0.032551 -0.009143
						CHANNELS 3 Zrotation Yrotation Xrotation
						JOINT RightForeArm
						{
							OFFSET -0.253742 -0.013329 -0.021401
							CHANNELS 3 Zrotation Yrotation Xrotation
							JOINT RightHand
							{
								OFFSET -0.255298 0.007772 -0.005559
								CHANNELS 3 Zrotation Yrotation Xrotation
								End Site
								{
									OFFSET 0.000000 0.000000 0.000000
								}
							}
						}
					}
				}
			}
		}
	}
}
MOTION
Frames: 13
Frame Time: 0.050000
0.057396 0.088699 1.117575 6.083027 -5.295800 -83.214252 12.153499 4.070789 -48.989130 2.700800 -8.311476 83.515260 -0.490576 -2.150241 -2.742555 0.000000 0.000000 0.000000 -7.269197 5.291933 -54.854274 21.286338 -12.024999 69.654527 -17.867541 -29.131288 32.939473 0.000000 0.000000 0.000000 18.106933 18.119234 -43.320888 1.950371 -8.044771 72.855808 -13.776720 -20.520656 -7.249159 4.699254 -6.086062 24.869683 0.000000 0.000000 0.000000 -34.796649 -19.537911 17.354143 -42.888605 -15.557080 -2.165956 -136.263132 -74.926592 138.352935 0.000000 0.000000 0.000000 6.944742 10.318149 3.182455 22.581161 21.074248 0.811773 -135.278626 45.354581 -86.520411 0.000000 0.000000 0.000000
0.057873 0.080361 1.121961 5.210372 -7.701352 -84.614591 13.118973 5.118542 -48.516733 1.514456 -6.168286 77.189293 -2.854977 2.420183 17.977503 0.000000 0.000000 0.000000 -10.474044 4.494508 -58.584399 26.243479 -15.191075 68.361946 -17.644929 -28.141187 41.117718 0.000000 0.000000 0.000000 17.759206 16.176868 -35.583851 2.198426 -7.498891 76.978726 -10.420205 -19.312846 -15.610774 3.047766 -3.591678 25.532916 0.000000 0.000000 0.000000 -34.390658 -18.823556 15.560751 -45.525913 -20.897650 1.129796 -126.808058 -80.075205 129.790961 0.000000 0.000000 0.000000 8.007263 11.893187 3.704185 18.134902 19.417167 0.977448 -130.765397 38.907417 -70.879356 0.000000 0.000000 0.000000
0.056484 0.078011 1.133442 4.548249 -9.759717 -82.540583 13.640154 5.974235 -50.516131 2.590153 -6.036545 73.642063 -7.164317 1.647653 31.025853 0.000000 0.000000 0.000000 -14.170320 3.182772 -61.647806 30.273924 -16.283299 64.050861 -18.486978 -28.599123 44.709470 0.000000 0.000000 0.000000 15.916885 13.870431 -32.088494 2.462235 -4.760988 79.412700 -8.864107 -16.490589 -19.782868 5.042176 -5.994659 23.238406 0.000000 0.000000 0.000000 -32.432495 -20.219064 14.454009 -47.767455 -27.872643 5.541264 -87.288612 -87.861018 93.561620 0.000000 0.000000 0.000000 8.318018 11.611391 3.604872 17.378528 19.976325 1.180435 -127.053830 35.676506 -59.985381 0.000000 0.000000 0.000000
0.053969 0.074030 1.153383 3.532318 -12.900671 -81.554526 14.010997 7.119406 -51.990805 5.470417 -7.950704 71.892102 -7.989443 2.141791 35.004831 0.000000 0.000000 0.000000 -17.344902 2.362606 -63.462247 33.498975 -16.933767 60.630921 -18.820447 -28.368848 49.597162 0.000000 0.000000 0.000000 15.405132 12.382953 -27.560186 4.283776 -5.963863 79.832437 -12.033089 -14.996104 -21.381101 4.998928 -6.053234 22.103159 0.000000 0.000000 0.000000 -27.729462 -23.447683 14.164432 -52.935967 -35.543345 11.521671 34.806637 -78.549394 -23.502203 0.000000 0.000000 0.000000 11.584764 11.050043 3.397141 16.831784 21.512733 1.377283 -122.160508 38.310780 -57.282447 0.000000 0.000000 0.000000
0.050854 0.072205 1.181055 3.215892 -14.664568 -80.736917 14.316536 8.090015 -53.798690 7.139420 -9.048635 71.642265 -10.293439 1.209200 39.120069 0.000000 0.000000 0.000000 -19.826650 1.707386 -65.282796 33.891658 -16.580527 60.056963 -18.409996 -27.734696 52.809760 0.000000 0.000000 0.000000 16.138719 11.729583 -24.127641 5.241946 -5.184770 75.622936 -12.887357 -15.156826 -18.883822 5.473228 -6.409843 22.792011 0.000000 0.000000 0.000000 -28.903222 -24.925275 15.940018 -50.272787 -41.289203 13.654498 40.196453 -70.659342 -24.005831 0.000000 0.000000 0.000000 15.068579 11.575328 3.450801 18.190877 23.411073 1.795080 -120.139742 46.585773 -66.369841 0.000000 0.000000 0.000000
0.047417 0.067833 1.214909 3.474905 -15.740195 -80.707473 16.417367 9.961750 -53.506666 7.591985 -9.611079 70.838398 -11.403549 0.183819 39.153259 0.000000 0.000000 0.000000 -21.719280 1.238460 -66.827970 30.014364 -14.357024 62.207456 -13.296903 -23.993122 51.240952 0.000000 0.000000 0.000000 16.941910 10.724415 -19.489648 4.292596 -2.052560 77.169436 -11.494175 -14.053258 -20.262147 8.078369 -10.042895 26.190131 0.000000 0.000000 0.000000 -31.088704 -30.865408 20.272089 -43.651674 -44.711057 13.176141 48.851715 -62.888401 -27.194898 0.000000 0.000000 0.000000 16.772012 11.885894 3.782989 23.100159 22.088157 2.399334 -125.515633 51.312996 -78.214543 0.000000 0.000000 0.000000
0.044767 0.072126 1.252603 2.554787 -16.512570 -78.633505 18.879571 12.097392 -55.316424 6.519997 -9.383804 71.244224 -13.676900 -1.801610 39.462101 0.000000 0.000000 0.000000 -25.803465 -1.107376 -67.597257 28.110014 -12.980439 62.725948 -7.160574 -19.039762 49.994199 0.000000 0.000000 0.000000 16.893705 10.727591 -19.710196 4.011687 -2.120033 84.641786 -7.958183 -14.436031 -23.563848 5.928405 -6.486516 21.269364 0.000000 0.000000 0.000000 -30.607635 -30.428580 19.902822 -43.100370 -50.365491 15.526480 45.949567 -58.066878 -23.198030 0.000000 0.000000 0.000000 17.812030 12.322677 3.633439 27.142159 26.378286 4.132672 -127.139112 55.761913 -87.573423 0.000000 0.000000 0.000000
0.042863 0.076336 1.292541 0.948299 -16.610224 -76.387185 20.434304 13.356057 -58.116365 4.696692 -8.472429 71.429080 -12.254242 -0.655764 38.529496 0.000000 0.000000 0.000000 -31.644100 -4.980366 -65.861426 30.673679 -14.291734 61.452735 -6.685451 -18.620700 47.626605 0.000000 0.000000 0.000000 14.881801 8.326428 -15.884535 5.107039 -5.438768 89.488745 -11.294387 -14.606576 -30.373211 9.296426 -9.268419 20.920724 0.000000 0.000000 0.000000 -26.712416 -34.894503 21.191712 -39.406240 -52.887580 16.133810 44.821805 -48.137278 -18.731560 0.000000 0.000000 0.000000 20.637556 15.259030 5.542091 29.647469 25.409223 5.045499 -114.769863 58.635580 -76.611969 0.000000 0.000000 0.000000
0.041191 0.083786 1.332151 1.335083 -16.166392 -74.843952 24.857454 16.961970 -60.313835 -2.128656 -3.842026 75.562218 -9.625925 1.304865 36.815663 0.000000 0.000000 0.000000 -36.575308 -7.594870 -64.691737 32.216681 -15.338980 61.924676 -5.155759 -17.302861 49.061011 0.000000 0.000000 0.000000 16.856460 7.996834 -11.208646 3.634560 -4.816523 102.690293 -8.126033 -15.978883 -39.798382 10.649354 -7.128251 12.232618 0.000000 0.000000 0.000000 -21.172217 -37.498107 21.684827 -34.243174 -57.569108 16.147320 43.862456 -39.992977 -14.678126 0.000000 0.000000 0.000000 21.108537 17.297536 6.543539 30.068967 27.493130 6.308811 -83.770789 60.369386 -50.287386 0.000000 0.000000 0.000000
0.039723 0.099229 1.368654 1.120200 -16.571104 -71.001829 28.203076 20.573133 -63.634024 -6.553261 -0.509264 79.021064 -4.937747 4.522572 31.871428 0.000000 0.000000 0.000000 -42.491407 -10.008096 -62.610701 36.631277 -18.575777 62.698736 -4.026475 -16.099424 46.597492 0.000000 0.000000 0.000000 23.135255 8.043286 -0.990624 2.756072 -3.473613 113.040942 -0.471362 -20.528999 -52.725632 15.228373 -4.815554 8.185787 0.000000 0.000000 0.000000 -17.522383 -39.848822 26.162891 -18.615437 -59.643912 9.437841 42.171381 -30.734661 -8.831435 0.000000 0.000000 0.000000 22.880147 20.002103 6.569406 23.112193 31.054209 6.522160 -33.211657 51.266784 -11.716010 0.000000 0.000000 0.000000
0.039607 0.117934 1.400538 1.920650 -16.044306 -66.910881 32.748395 23.521979 -62.549407 -11.813960 4.117789 77.767648 -1.266998 7.667534 28.889295 0.000000 0.000000 0.000000 -47.663255 -12.181567 -61.640058 39.920850 -21.958001 63.597501 -8.761548 -20.399020 45.413517 0.000000 0.000000 0.000000 42.963327 6.393987 22.984708 0.857216 -1.730965 123.286695 27.161612 -27.819258 -81.366397 36.669955 5.041588 7.533869 0.000000 0.000000 0.000000 -7.546713 -34.565121 32.814949 -1.707140 -65.222260 3.066376 50.057871 -20.325695 -5.087095 0.000000 0.000000 0.000000 25.222126 30.626809 2.106950 18.743001 26.430449 8.679510 -17.777429 40.564877 -2.394717 0.000000 0.000000 0.000000
0.040964 0.145953 1.428599 3.889607 -16.646562 -61.761170 33.454959 23.384934 -57.636016 -7.538757 1.649263 70.800131 -4.187547 3.073483 24.174406 0.000000 0.000000 0.000000 -50.306030 -11.797235 -59.734977 39.754159 -21.377267 62.454647 -7.853808 -19.685740 42.383883 0.000000 0.000000 0.000000 55.518510 -13.358614 56.352771 -3.416414 35.419971 124.034585 73.824761 -4.839805 -102.588253 45.638156 15.191598 17.928113 0.000000 0.000000 0.000000 -12.312209 -29.203928 60.567603 38.766404 -62.989834 -25.243406 54.255999 -3.174359 -4.716119 0.000000 0.000000 0.000000 13.128020 31.244813 4.724585 17.706749 32.205182 7.551598 -13.503497 30.022426 -8.157886 0.000000 0.000000 0.000000
0.041352 0.182105 1.455515 5.779422 -18.657113 -54.558239 38.490890 25.746297 -50.706905 -6.966426 2.488417 61.761470 -6.760332 -4.532586 12.821570 0.000000 0.000000 0.000000 -52.259626 -10.571715 -58.463292 41.637039 -19.883517 55.029783 -12.936289 -25.358688 38.833067 0.000000 0.000000 0.000000 38.119797 -27.636734 90.657562 -121.386090 32.411031 -36.117625 122.948189 -58.116745 -60.887842 24.052350 6.602390 6.286203 0.000000 0.000000 0.000000 -18.121352 -28.630797 75.654632 60.309774 -46.040289 -32.399703 51.392511 14.168686 -0.506159 0.000000 0.000000 0.000000 0.295266 34.740090 -0.652385 4.943951 36.258601 -9.892546 -9.259124 25.822753 -8.682260 0.000000 0.000000 0.000000
